<svg viewBox="0 0 14 14" xmlns="http://www.w3.org/2000/svg"><path d="m6.3761687 12.96711c-2.0236246-.2011-3.8142247-1.4444-4.7157932-3.2746004-1.14371749-2.3218-.69966864-5.1066 1.0981152-6.8868 1.0108814-1.001 2.0375973-1.5037 3.5345057-1.7307.6580286-.10000001.7536449-.10000001 1.4226037 0 1.5153384.2227 2.6461019.7922 3.6384679 1.8327.744079.78 1.184387 1.5843 1.466116 2.6779.155164.6023.165184.7219.135335 1.6146-.03698 1.106-.149551 1.5896-.570658 2.4516-1.111082 2.2742004-3.4586873 3.5701004-6.0086923 3.3168004zm1.2798912-1.1444c2.1820186-.3036 3.8792261-2.0260004 4.1732311-4.2353004.133547-1.0035-.105918-2.1322-.644867-3.0393-.141316-.2379-.291508-.4324-.333761-.4323-.04225.0001-.4137.3438-.825443.7638l-.748621.7638-.2707424-.5249c-.1489085-.2888-.2809228-.5646-.2933657-.613-.012448-.049.2576076-.3694.6001121-.7133.5242837-.5262.6101725-.6402.5432725-.7208-.1268701-.1528-1.2103526-.6632-1.663276-.7834-.6403385-.17-1.8036409-.1547-2.4537738.032-.8625299.2478-1.4486324.5999-2.1423791 1.2865-.5306176.5253-.6520676.6876-.9060567 1.211-.1613175.3324-.3423736.8052-.4023458 1.0506-.1483105.6068-.1471267 1.7058.0025 2.2944.1164659.4582.5177568 1.3421.7379205 1.6252l.1238856.1594.570438-.5665.570439-.5665.1409548.2796c.077527.1539.2402565.4022.3616265.5519l.2206716.2721-.4514276.4604004c-.2482851.2533-.4514277.48-.4514277.5037 0 .094.7510253.5053 1.2589547.6891.7972836.2885 1.4785034.3636 2.2835078.2516zm-1.3825263-1.9372004c-1.0701357-.3939-1.6652406-1.461-1.4337868-2.5712.121289-.5817.4645045-1.372 1.0068212-2.3187.3805543-.6642.9968578-1.6375 1.1345461-1.7918.025206-.028.2465504.2586.491883.6374 1.2055644 1.8612 1.7529062 3.0924 1.754541 3.9465.0018.947-.6110594 1.8028-1.4957597 2.0885-.3813541.1232-1.1357259.1280004-1.4582448.01zm.7081124-.5437c.070108-.07.127469-.1705.127469-.2231 0-.1273-.2285443-.3505-.3589499-.3505-.206397 0-.5261833-.2637-.6632817-.5469-.1138992-.2353-.1312414-.3492-.096054-.6308.039923-.3196.031685-.3511-.1173457-.4487-.3429485-.2247-.5499824.024-.5475318.6586.0028.7363.4956354 1.3922 1.2091409 1.6093.2523314.077.3107658.068.4465534-.068z"/></svg>