<svg height="64" viewBox="0 0 64 64" width="64" xmlns="http://www.w3.org/2000/svg" xmlns:xlink="http://www.w3.org/1999/xlink"><defs><path id="a" d="m0 0h22l-2 47h-18z"/><mask id="b" fill="#fff"><use fill="#fff" fill-rule="evenodd" xlink:href="#a"/></mask></defs><g fill="none" fill-rule="evenodd"><g transform="translate(6 16)"><use fill="#b4dffb" xlink:href="#a"/><path d="m-10 10h41v45h-41z" fill="#80d25b" mask="url(#b)"/></g><path d="m48.199415 40s-1.5138569-4.0204034 3.800585-7" stroke="#bd7575" stroke-linecap="round" stroke-width="2"/><path d="m22 60-16-58" stroke="#d8d8d8" stroke-linecap="square" stroke-width="2"/><g fill="#80d25b"><path d="m42.7690024 62c1.3024944 0 4.8182587-.9378586 5.7539726-2.5167982 2.3762147-4.0096656 1.1718055-11.6684058 1.1718055-15.0213879 0-4.6733308-3.7372539-8.4618139-8.3473903-8.4618139-4.6101363 0-8.3473902 3.7884831-8.3473902 8.4618139 0 4.6733307 5.1588661 17.5381861 9.7690024 17.5381861z"/><path d="m54.7690024 62c1.3024944 0 4.8182587-.9378586 5.7539726-2.5167982 2.3762147-4.0096656 1.1718055-11.6684058 1.1718055-15.0213879 0-4.6733308-3.7372539-8.4618139-8.3473903-8.4618139-4.6101363 0-8.3473902 3.7884831-8.3473902 8.4618139 0 4.6733307 5.1588661 17.5381861 9.7690024 17.5381861z" transform="matrix(-1 0 0 1 107 0)"/></g></g></svg>